# xmcd CD database file
#
# Track frame offsets:
#	150
#	18527
#	35551
#	54788
#	70888
#	84896
#	109394
#	126341
#	139446
#	154822
#	170734
#	189005
#
# Disc length: 2808 seconds
#
# Revision: 0
# Processed by: cddbd v1.5.2PL0 Copyright (c) Steve Scherf et al.
# Submitted via: CDex 1.51
#
DISCID=a20af60c
DTITLE=Jack Jezzro with the Mason Embry Trio - Vintage Romance
DYEAR=2014
DGENRE=Jazz
TTITLE0=Moon River
TTITLE1=It Could Happen To You
TTITLE2=Overjoyed
TTITLE3=Can't Help Falling In Love
TTITLE4=Tangerine
TTITLE5=The Very Thought Of You
TTITLE6=Waltz For Debbie
TTITLE7=Lullaby Of Birdland
TTITLE8=Unchained Melody
TTITLE9=All My Loving
TTITLE10=I Won't Last A Day Without you
TTITLE11=Someone To Watch Over Me
EXTD=YEAR: 2014
EXTT0=
EXTT1=
EXTT2=
EXTT3=
EXTT4=
EXTT5=
EXTT6=
EXTT7=
EXTT8=
EXTT9=
EXTT10=
EXTT11=
PLAYORDER=
